<svg width="4000" height="4000" viewBox="0 0 4000 4000" fill="none" xmlns="http://www.w3.org/2000/svg">
<circle cx="2000" cy="2000" r="2000" fill="#FFD015"/>
<path d="M2401.35 3406.65C2635.93 3358.91 2812.58 3280.28 2931.21 3170.9C3049.84 3061.52 3109.12 2917.01 3109.12 2737.35V2452.17C3109.12 2219.99 3249.62 2103.89 3530.61 2103.89V1896.11C3249.62 1896.11 3109.12 1780.48 3109.12 1549.29V1251.15C3106.51 1076.34 3047.16 935.149 2931.21 827.637C2815.19 720.183 2638.61 642.087 2401.35 593.351L2325.75 758.18C2602.79 822.15 2741.31 988.905 2741.31 1258.33V1547.83C2741.31 1764.72 2851.97 1915.66 3073.36 2000.7C2851.97 2086.73 2741.31 2239.07 2741.31 2457.89V2753.11C2737.35 3015.88 2598.83 3178.78 2325.75 3241.82L2401.35 3406.65ZM1608.35 3405.19C1373.82 3357.45 1197.31 3278.88 1078.74 3169.56C960.174 3060.24 900.89 2915.78 900.89 2736.24V2451.18C900.89 2219.17 760.458 2103.14 479.592 2103.14V1895.41C760.458 1895.41 900.89 1779.9 900.89 1548.76V1250.8C903.504 1076.05 962.788 934.974 1078.74 827.52C1194.63 720.124 1371.15 642.029 1608.35 593.351L1683.82 758.063C1406.97 822.033 1268.51 988.672 1268.51 1257.98V1547.36C1268.51 1764.14 1157.92 1915.02 936.652 2000C1157.92 2085.92 1268.51 2238.26 1268.51 2456.96V2752C1272.47 3014.66 1410.92 3177.44 1683.82 3240.48L1608.35 3405.19Z" fill="black"/>
<path d="M1708.82 1779.69L1743.75 2342.67L1582.79 2648.48L1540.53 2175.87L1708.82 1779.69Z" fill="black"/>
<path d="M2301.39 1779.69L2266.41 2342.67L2427.38 2648.48L2469.68 2175.87L2301.39 1779.69Z" fill="black"/>
<path d="M2202.51 1159.8C2148.11 991.173 2062.32 890.026 2005.1 890.026C1947.89 890.026 1862.1 991.242 1807.7 1159.8H2202.51Z" fill="black"/>
<path d="M2224.38 1238.93H1785.83C1766.49 1321.98 1754.99 1417.1 1756.58 1521.57C1761.26 1821.02 1809.11 2349.65 1809.11 2349.65L2166.12 2349.58L2201.05 2349.65C2201.05 2349.65 2248.94 1820.94 2253.54 1521.57C2255.22 1417.1 2243.71 1321.91 2224.38 1238.93ZM2005.1 1891.74C1936.47 1891.74 1880.84 1808.95 1880.84 1706.72C1880.84 1604.49 1936.51 1521.7 2005.1 1521.7C2073.69 1521.7 2129.32 1604.49 2129.27 1706.72C2129.32 1808.96 2073.69 1891.74 2005.1 1891.74Z" fill="black"/>
<path d="M2510.2 3109.98C2492.42 3033.69 2443.66 2978.95 2386.4 2978.95C2368.07 2978.95 2350.6 2984.51 2334.68 2994.67C2329.22 2905.45 2278.83 2835.6 2217.51 2835.6C2208.64 2835.6 2200.05 2837.02 2191.77 2839.8C2191.86 2837.36 2191.86 2834.92 2191.86 2832.48C2191.86 2765.14 2155.2 2710.53 2109.99 2710.53C2098.25 2710.53 2087.06 2714.19 2076.97 2720.83C2048.63 2646.17 2040.4 2451.33 2040.4 2451.33H1966.17C1966.17 2451.33 1956.66 2665.28 1923.05 2736.14C1915.22 2731.4 1906.58 2728.83 1897.58 2728.83C1859.69 2728.83 1828.98 2774.56 1828.98 2830.99C1828.98 2835.26 1829.17 2839.46 1829.53 2843.59C1818.71 2838.37 1819.98 2835.6 1807.97 2835.6C1759.99 2835.6 1719.1 2880.71 1703.36 2943.99C1685.76 2933.08 1666.47 2927.06 1646.23 2927.06C1573 2927.06 1512.14 3006.05 1500 3109.98H2510.2Z" fill="url(#paint0_linear_71_53)"/>
<defs>
<linearGradient id="paint0_linear_71_53" x1="2005.1" y1="2451.33" x2="2005.1" y2="3109.98" gradientUnits="userSpaceOnUse">
<stop stop-color="#FF1F00"/>
<stop offset="1" stop-color="#FF8B04"/>
</linearGradient>
</defs>
</svg>
